<?xml version="1.0" encoding="UTF-8" standalone="no"?>
<!-- Created with Inkscape (http://www.inkscape.org/) -->

<svg
   version="1.1"
   id="svg1"
   width="1862.4712"
   height="2029.0574"
   viewBox="0 0 1862.4712 2029.0574"
   sodipodi:docname="logo.svg"
   xmlns:inkscape="http://www.inkscape.org/namespaces/inkscape"
   xmlns:sodipodi="http://sodipodi.sourceforge.net/DTD/sodipodi-0.dtd"
   xmlns="http://www.w3.org/2000/svg"
   xmlns:svg="http://www.w3.org/2000/svg">
  <sodipodi:namedview
     id="namedview1"
     pagecolor="#505050"
     bordercolor="#eeeeee"
     borderopacity="1"
     inkscape:showpageshadow="0"
     inkscape:pageopacity="0"
     inkscape:pagecheckerboard="0"
     inkscape:deskcolor="#505050">
    <inkscape:page
       x="0"
       y="0"
       width="1862.4712"
       height="2029.0574"
       id="page2"
       margin="0"
       bleed="0" />
  </sodipodi:namedview>
  <defs
     id="defs1" />
  <g
     id="g1"
     transform="translate(-639.54834,-230.62185)">
    <g
       id="g2"
       transform="translate(-8.4463404,-31.101895)">
      <path
         style="fill:#dd55ff"
         d="m 647.99481,2290.1502 c 0,-0.3471 1.1788,-3.1971 2.6195,-6.3333 8.0705,-17.5684 14.5886,-31.4855 21.5658,-46.0461 4.3074,-8.989 12.9903,-27.589 19.2955,-41.3333 6.3051,-13.7443 13.4388,-29.1896 15.8526,-34.323 4.4932,-9.5553 11.4467,-24.4502 18.051,-38.6666 2.0441,-4.4 7.0688,-15.0979 11.166,-23.773 4.0973,-8.6752 7.4496,-16.0343 7.4496,-16.3536 0,-0.3193 3.9,-8.7302 8.6666,-18.6908 4.7667,-9.9607 8.6667,-18.3399 8.6667,-18.6206 0,-0.2808 2.4596,-5.772 5.4657,-12.2029 3.0062,-6.4309 6.5608,-14.0925 7.8993,-17.0258 1.3384,-2.9333 6.0788,-13.0324 10.5342,-22.4423 4.4555,-9.41 8.1008,-17.377 8.1008,-17.7046 0,-0.6424 8.731,-19.8352 10.5859,-23.2704 1.0652,-1.9728 23.9301,-51.9663 32.2815,-70.5827 2.1383,-4.7667 4.4023,-9.6034 5.031,-10.7483 0.6287,-1.1449 5.7594,-12.2449 11.4015,-24.6666 13.2755,-29.2278 14.5598,-32.0142 30.6887,-66.5791 3.4204,-7.3301 7.4746,-16.3301 9.0094,-20 1.5347,-3.67 3.2279,-7.2727 3.7626,-8.006 0.5347,-0.7333 6.478,-13.6333 13.2073,-28.6667 6.7293,-15.0333 14.3737,-31.8333 16.9876,-37.3333 5.6044,-11.7924 18.9938,-40.5706 26.0547,-56 4.4391,-9.7005 10.8901,-23.6836 16.6082,-36 2.5535,-5.5 6.0331,-13 7.7326,-16.6666 1.6995,-3.6667 6.1408,-13.1683 9.8695,-21.1147 3.7287,-7.9464 6.7795,-14.7336 6.7795,-15.0826 0,-0.349 1.465,-3.7474 3.2555,-7.552 1.7905,-3.8046 3.88909,-8.4174 4.66349,-10.2507 0.7744,-1.8334 1.9506,-4.2334 2.6138,-5.3334 1.2918,-2.1426 21.2146,-45.8495 36.4209,-79.9006 5.1004,-11.4213 10.6575,-23.766 12.3492,-27.4327 1.6916,-3.6667 6.1909,-13.5667 9.9984,-22 3.8075,-8.4333 8.9724,-19.7062 11.4774,-25.0509 2.5051,-5.3446 4.5546,-9.9592 4.5546,-10.2545 0,-0.2953 2.4537,-5.8224 5.4526,-12.2824 2.9989,-6.4601 6.5989,-14.2955 8,-17.4122 12.5483,-27.913 18.6814,-41.3912 26.4282,-58.0788 2.9989,-6.4601 5.4526,-11.9885 5.4526,-12.2853 0,-0.2969 3.3,-7.5097 7.3333,-16.0285 4.0333,-8.5188 7.3333,-15.7273 7.3333,-16.0188 0,-0.2916 2.1514,-5.1933 4.7808,-10.8927 2.6294,-5.6994 5.8758,-12.7626 7.2141,-15.6959 1.3384,-2.9333 4.887,-10.6188 7.8859,-17.0788 2.9989,-6.4601 5.4526,-11.9985 5.4526,-12.3078 0,-0.3092 2.4713,-5.8237 5.4918,-12.2544 3.0205,-6.4308 10.5704,-23.0923 16.7775,-37.0257 6.2071,-13.9333 12.6735,-28.3333 14.3698,-32 1.6963,-3.6666 8.0391,-17.7666 14.095,-31.3333 6.056,-13.5667 11.522,-24.8679 12.1467,-25.1139 0.6247,-0.246 0.7359,-1.146 0.247,-2 -0.4888,-0.854 -0.4455,-1.1558 0.096,-0.6706 0.9527,0.8533 18.3106,28.9674 23.7402,38.4512 2.3488,4.1026 14.0873,23.6187 19.7026,32.7572 1.1,1.7901 13.7,22.7494 28,46.5761 14.3,23.8267 27.0411,44.974 28.3135,46.994 1.2725,2.02 2.9314,4.8727 3.6865,6.3393 0.7551,1.4667 2.414,4.289 3.6864,6.2718 1.9588,3.0524 5.4476,8.7893 17.2613,28.3839 0.8879,1.4727 2.0441,3.5777 2.5692,4.6777 0.5252,1.1 2.4865,4.4 4.3584,7.3333 5.0649,7.9368 6.5851,10.455 7.6467,12.6667 0.528,1.1 4.7515,8.2188 9.3856,15.8197 4.6341,7.6008 8.4257,14.0297 8.4257,14.2864 0,0.2567 3.2543,5.8336 7.2317,12.393 3.9775,6.5594 6.8775,12.2805 6.4445,12.7136 -0.4331,0.433 -0.1998,0.7873 0.5183,0.7873 0.7181,0 3.3333,3.6048 5.8115,8.0107 2.4782,4.4059 4.8638,7.5559 5.3013,7 0.4375,-0.5559 3.3894,-7.6107 6.5598,-15.6774 3.1704,-8.0667 6.8972,-17.2101 8.2819,-20.3188 1.3847,-3.1087 2.5176,-6.1824 2.5176,-6.8305 0,-0.6481 1.1454,-3.8047 2.5453,-7.0145 6.3393,-14.5359 7.198,-16.5837 7.4861,-17.8531 0.3559,-1.5679 9.9136,-25.5871 15.6448,-39.3164 1.0714,-2.5667 6.3116,-15.7667 11.6449,-29.3334 12.2556,-31.1756 53.2313,-134.4461 54.7556,-138 0.6291,-1.4666 20.1343,-50.3667 43.3449,-108.6667 23.2106,-58.3 42.9625,-107.8 43.8931,-110 0.9307,-2.2 8.7174,-21.9999 17.3038,-43.9999 17.713,-45.38374 16.973,-43.52238 20.1419,-50.66671 2.2874,-5.15703 2.3963,-5.22314 3.2963,-2 0.5119,1.83333 2.8546,7.49876 5.2059,12.58983 2.3513,5.09108 4.3537,10.29951 4.4497,11.5743 0.096,1.27479 0.6501,2.02395 1.2312,1.66481 0.5811,-0.35914 1.0565,0.0153 1.0565,0.83219 0,1.51789 4.3595,12.09195 6.7586,16.39311 0.7325,1.31316 0.976,2.96316 0.5412,3.66666 -0.4347,0.70351 -0.1551,1.2791 0.6215,1.2791 0.7767,0 1.2908,0.45 1.1425,1 -0.1482,0.55 1.064,3.55001 2.6938,6.66671 1.6298,3.1166 2.5011,5.6758 1.9362,5.687 -0.5649,0.011 -0.3934,0.4613 0.3811,1 0.7745,0.5388 3.6489,6.2404 6.3875,12.6703 2.7386,6.4299 6.755,15.527 8.9252,20.2157 2.1702,4.6887 3.9458,8.8509 3.9458,9.2494 0,0.3985 1.7568,4.5014 3.904,9.1177 2.1472,4.6162 5.9776,13.1932 8.5119,19.0598 2.5343,5.8667 6.1774,14.1167 8.0959,18.3334 8.3264,18.3008 10.1548,22.4485 10.1548,23.0359 0,0.343 1.8669,4.6752 4.1487,9.6272 2.2818,4.9519 5.2149,11.4035 6.518,14.3369 1.3031,2.9333 4.2362,9.3849 6.518,14.3369 2.2818,4.9519 4.1487,9.2424 4.1487,9.5342 0,0.2919 2.4288,5.8403 5.3973,12.3298 2.9685,6.4895 5.9446,12.9991 6.6137,14.4657 0.669,1.4667 9.9784,22.7046 20.6876,47.1953 10.7092,24.4907 20.5885,46.9907 21.9542,50 1.3656,3.0093 6.669,15.0714 11.7853,26.8048 5.1163,11.7333 11.1608,25.3303 13.4321,30.2156 2.2714,4.8853 4.1298,9.1818 4.1298,9.5478 0,0.3661 2.1,5.1498 4.6666,10.6306 2.5667,5.4808 4.6667,10.2754 4.6667,10.6547 0,0.6198 6.586,15.223 13.4235,29.764 1.4171,3.0136 2.5765,5.8041 2.5765,6.2009 0,0.3969 2.4,5.8682 5.3333,12.1584 2.9334,6.2903 5.3524,11.8999 5.3758,12.4658 0.023,0.5658 0.8614,2.1089 1.8625,3.429 1.6638,2.1941 2.1555,1.7361 5.7258,-5.3333 2.1481,-4.2535 7.9889,-15.2335 12.9796,-24.4002 4.9907,-9.1667 12.4071,-22.9667 16.4807,-30.6667 4.0737,-7.7 7.946,-14.3671 8.6051,-14.8157 0.659,-0.4487 1.0916,-1.0487 0.9611,-1.3333 -0.3734,-0.8149 2.9895,-8.1793 5.4117,-11.851 1.2094,-1.8333 5.8211,-10.2449 10.2482,-18.6923 4.427,-8.4475 10.0074,-18.9475 12.4007,-23.3334 3.9121,-7.1691 13.9152,-25.7599 27.9656,-51.9743 2.7514,-5.1333 10.678,-19.8333 17.6148,-32.6667 6.9368,-12.8333 15.6341,-29.0333 19.3273,-36 3.6931,-6.9666 10.307,-19.2666 14.6974,-27.3333 10.1342,-18.62 16.4699,-30.4015 24.0204,-44.6667 3.2993,-6.2333 13.0287,-24.2333 21.6209,-40 8.5922,-15.7666 19.1278,-35.2666 23.4125,-43.3333 4.2847,-8.0667 8.2815,-14.8679 8.8818,-15.1139 0.6003,-0.2459 0.7523,-0.9959 0.3378,-1.6666 -0.4146,-0.6707 -0.1183,-1.2195 0.6583,-1.2195 0.7766,0 1.2823,-0.45 1.1237,-1 -0.2985,-1.0354 3.3761,-8.5223 10.9613,-22.33331 2.4165,-4.4 6.475,-11.9 9.0189,-16.66667 2.5439,-4.76666 6.8814,-12.86666 9.6389,-18 2.7575,-5.13333 7.8591,-14.73333 11.337,-21.33333 3.4779,-6.6 7.1504,-12.94724 8.1611,-14.10499 1.0108,-1.15774 1.8378,-2.78134 1.8378,-3.60799 0,-0.82665 1.6992,-4.38481 3.7759,-7.90702 2.0768,-3.52222 6.8079,-12.09862 10.5136,-19.05868 12.9898,-24.39752 35.362,-66.05822 39.3744,-73.32132 16.4196,-29.72265 21.0135,-39.16934 19.5019,-40.10354 -0.8838,-0.54624 -4.262,-1.39131 -7.507,-1.87792 -6.2617,-0.93901 -7.8062,-1.21731 -18.3255,-3.30217 -3.6666,-0.72671 -8.1666,-1.59802 -10,-1.93624 -1.8333,-0.33822 -6.6333,-1.23397 -10.6666,-1.99056 -4.0334,-0.75658 -9.1334,-1.68788 -11.3334,-2.06955 -2.2,-0.38166 -7.3,-1.2819 -11.3333,-2.00052 -4.0333,-0.71862 -9.4333,-1.65753 -12,-2.08647 -2.5667,-0.42895 -7.0667,-1.30071 -10,-1.93726 -2.9333,-0.63655 -7.7333,-1.51761 -10.6667,-1.95792 -2.9333,-0.44031 -6.2333,-1.05149 -7.3333,-1.35817 -1.1,-0.30668 -4.1,-0.86789 -6.6667,-1.24712 -2.5666,-0.37924 -8.6945,-1.5363 -13.6175,-2.57126 -4.923,-1.03496 -9.3518,-1.50964 -9.8417,-1.05485 -0.49,0.45479 -0.1501,-0.37311 0.7553,-1.83978 1.417,-2.29538 95.114,-65.28512 220.7039,-148.37279 19.8,-13.09926 64.8,-42.91485 100,-66.25687 35.2,-23.34201 72.1,-47.80351 82,-54.35889 9.9,-6.55537 19.0537,-12.86101 20.3415,-14.01253 1.2879,-1.15152 2.7379,-1.69735 3.2223,-1.21295 0.4844,0.48439 0.2147,0.88071 -0.5992,0.88071 -0.8139,0 -6.1184,8.85 -11.7877,19.66667 -5.6693,10.81666 -22.7189,42.46666 -37.888,70.33333 -15.169,27.86666 -38.8302,71.36666 -52.5803,96.66666 -113.5888,209.00165 -135.9374,250.2013 -188.0482,346.6667 -19.6093,36.2999 -37.5984,69.5999 -39.9759,73.9999 -2.3774,4.4 -8.9897,16.7 -14.694,27.3334 -5.7043,10.6333 -14.1266,26.2333 -18.7163,34.6666 -4.5896,8.4334 -37.8679,70.2334 -73.9516,137.3334 -36.0837,67.1 -71.468,132.8 -78.6318,146 -7.1637,13.2 -26.0862,48.3 -42.05,78 -15.9637,29.7 -36.5128,67.8 -45.6646,84.6667 -9.1518,16.8666 -21.3039,39.3666 -27.0048,50 -5.7009,10.6333 -11.4767,21.2795 -12.835,23.6582 -2.3946,4.1933 -4.4697,5.6341 -4.4697,3.1033 0,-1.1834 -7.585,-16.9793 -41.6621,-86.7615 -8.4156,-17.2334 -26.4106,-54.1334 -39.9889,-82 -13.5782,-27.8667 -37.1356,-76.1667 -52.3497,-107.3334 -28.652,-58.6949 -41.8968,-85.8579 -67.2305,-137.8799 -8.1816,-16.8006 -15.3565,-30.0006 -15.9442,-29.3333 -0.5876,0.6672 -7.4108,16.5132 -15.1625,35.2132 -7.7516,18.7 -25.3085,61 -39.0151,94 -13.7067,33 -31.5141,75.9 -39.5721,95.3334 -8.058,19.4333 -18.1623,43.7333 -22.454,54 -4.2916,10.2666 -12.8777,30.9666 -19.0801,46 -12.1879,29.541 -80.1463,193.5149 -84.9615,205 -1.6142,3.85 -3.3048,6.977 -3.7571,6.9489 -0.4522,-0.028 -4.9933,-6.7781 -10.0913,-15 -9.2198,-14.8696 -61.0541,-96.6544 -74.966,-118.2823 -4.0095,-6.2333 -15.1346,-23.6333 -24.7225,-38.6666 -33.8959,-53.1473 -70.6897,-110.0215 -72.2482,-111.678 -1.2353,-1.313 -5.5363,6.5156 -19.7782,36 -21.4355,44.3768 -54.9116,113.9793 -63.0115,131.0113 -3.1387,6.6 -10.6401,22.2 -16.6696,34.6667 -6.0296,12.4666 -13.2277,27.4666 -15.9958,33.3333 -2.7681,5.8667 -8.7755,18.4667 -13.3498,28 -16.3717,34.1208 -25.625,53.4694 -29.6511,62 -2.2497,4.7666 -12.7715,26.6666 -23.3819,48.6666 -10.6104,22 -20.6443,43 -22.2976,46.6667 -1.6533,3.6667 -17.2536,36.3667 -34.66739,72.6667 -37.223,77.5935 -43.2379,90.1698 -80.9877,169.3333 -4.0215,8.4333 -14.2134,29.7333 -22.6486,47.3333 -21.6583,45.1898 -27.7724,58.005 -41.0304,86 -6.425,13.5667 -16.3082,34.2667 -21.9627,46 -5.6545,11.7334 -15.0885,31.5334 -20.9643,44 -5.8759,12.4667 -18.9366,39.7667 -29.0239,60.6667 -10.0873,20.9 -22.7158,47.45 -28.0633,59 l -9.7228,21 h -48.4604 c -26.6533,0 -48.4605,-0.284 -48.4605,-0.631 z m 818.33329,-342.9187 c 0.9167,-0.3699 2.4167,-0.3699 3.3333,0 0.9167,0.3699 0.1667,0.6725 -1.6666,0.6725 -1.8334,0 -2.5834,-0.3026 -1.6667,-0.6725 z m 792.4386,-589.2281 c 0.064,-1.5532 0.3799,-1.8692 0.8056,-0.8055 0.3851,0.9625 0.3377,2.1125 -0.1053,2.5555 -0.4431,0.4431 -0.7582,-0.3444 -0.7003,-1.75 z M 756.20531,1337.4479 c 0,-1.8333 0.3026,-2.5833 0.6725,-1.6667 0.3699,0.9167 0.3699,2.4167 0,3.3334 -0.3699,0.9166 -0.6725,0.1666 -0.6725,-1.6667 z m 1386.76549,-22.6667 c 0,-2.5666 0.2744,-3.6166 0.6097,-2.3333 0.3354,1.2833 0.3354,3.3833 0,4.6667 -0.3353,1.2833 -0.6097,0.2333 -0.6097,-2.3334 z m -1269.33339,-4 c 0,-2.5666 0.2744,-3.6166 0.6098,-2.3333 0.3354,1.2833 0.3354,3.3833 0,4.6667 -0.3354,1.2833 -0.6098,0.2333 -0.6098,-2.3334 z m -0.099,-8 c 0,-1.8333 0.3027,-2.5833 0.6726,-1.6666 0.3698,0.9166 0.3698,2.4166 0,3.3333 -0.3699,0.9167 -0.6726,0.1667 -0.6726,-1.6667 z m 0.2027,-16.6666 c 0.01,-4.4 0.2564,-6.0393 0.5531,-3.6428 0.2968,2.3964 0.2906,5.9964 -0.014,8 -0.3042,2.0035 -0.547,0.043 -0.5395,-4.3572 z m 1269.22949,-2 c 0,-2.5667 0.2744,-3.6167 0.6097,-2.3334 0.3354,1.2834 0.3354,3.3834 0,4.6667 -0.3353,1.2833 -0.6097,0.2333 -0.6097,-2.3333 z m -1388.20409,-0.7778 c 0.064,-1.5533 0.3799,-1.8692 0.8056,-0.8056 0.3851,0.9625 0.3377,2.1125 -0.1053,2.5556 -0.4431,0.443 -0.7582,-0.3445 -0.7003,-1.75 z m 1386.66669,-28 c 0.064,-1.5533 0.3799,-1.8692 0.8055,-0.8056 0.3852,0.9625 0.3378,2.1125 -0.1052,2.5556 -0.4431,0.443 -0.7582,-0.3445 -0.7003,-1.75 z m -1381.33339,-48 c 0.064,-1.5533 0.38,-1.8692 0.8056,-0.8056 0.3852,0.9625 0.3378,2.1125 -0.1053,2.5556 -0.443,0.443 -0.7582,-0.3445 -0.7003,-1.75 z m 2.6667,-20 c 0.064,-1.5533 0.3799,-1.8692 0.8056,-0.8056 0.3851,0.9625 0.3377,2.1125 -0.1053,2.5556 -0.4431,0.443 -0.7582,-0.3445 -0.7003,-1.75 z M 1971.9946,826.1145 c -5.4633,-5.5 -9.6333,-9.9999 -9.2666,-9.9999 0.3666,0 5.1366,4.4999 10.5999,9.9999 5.4633,5.5 9.6333,10 9.2666,10 -0.3667,0 -5.1366,-4.5 -10.5999,-10 z m 486.4966,-45.66661 c -1.6585,-2.11474 -1.6114,-2.1619 0.5034,-0.50341 1.2833,1.00646 2.3333,2.05646 2.3333,2.33334 0,1.09737 -1.0949,0.39107 -2.8367,-1.82993 z m -389.2642,-25.33333 -3.2324,-3.66667 3.6666,3.23242 c 3.4271,3.02118 4.2782,4.10091 3.2325,4.10091 -0.2389,0 -1.8889,-1.65 -3.6667,-3.66666 z M 972.66121,754.78122 c 1.3274,-1.46666 2.7133,-2.66666 3.08,-2.66666 0.3667,0 -0.4193,1.2 -1.7466,2.66666 -1.3273,1.46667 -2.7133,2.66667 -3.08,2.66667 -0.3667,0 0.4193,-1.2 1.7466,-2.66667 z M 2051.9946,738.11456 c -3.2387,-3.3 -5.5886,-6 -5.2219,-6 0.3666,0 3.3165,2.7 6.5552,6 3.2387,3.3 5.5886,6 5.2219,6 -0.3667,0 -3.3165,-2.7 -6.5552,-6 z M 995.99461,731.44789 c 2.4877,-2.56667 4.82309,-4.66667 5.18969,-4.66667 0.3667,0 -1.36869,2.1 -3.85639,4.66667 -2.4877,2.56667 -4.8231,4.66667 -5.1898,4.66667 -0.3666,0 1.3688,-2.1 3.8565,-4.66667 z m 1478.77189,-9.44444 c 0.064,-1.55326 0.3799,-1.8692 0.8056,-0.80556 0.3851,0.9625 0.3377,2.1125 -0.1053,2.55556 -0.4431,0.44305 -0.7582,-0.34445 -0.7003,-1.75 z m -988.4386,-84.10526 c 0.9167,-0.36989 2.4167,-0.36989 3.3333,0 0.9167,0.36988 0.1667,0.67251 -1.6666,0.67251 -1.8334,0 -2.5834,-0.30263 -1.6667,-0.67251 z m 66.6667,0 c 0.9166,-0.36989 2.4166,-0.36989 3.3333,0 0.9167,0.36988 0.1667,0.67251 -1.6667,0.67251 -1.8333,0 -2.5833,-0.30263 -1.6666,-0.67251 z m 928.4386,-6.56141 c 0.064,-1.55325 0.3799,-1.8692 0.8055,-0.80555 0.3852,0.9625 0.3378,2.1125 -0.1052,2.55555 -0.4431,0.44306 -0.7582,-0.34444 -0.7003,-1.75 z m 1.3333,-18.66666 c 0.064,-1.55326 0.3799,-1.8692 0.8056,-0.80556 0.3851,0.9625 0.3377,2.1125 -0.1053,2.55556 -0.4431,0.44305 -0.7582,-0.34445 -0.7003,-1.75 z m 2.6667,-36 c 0.064,-1.55326 0.3799,-1.8692 0.8055,-0.80556 0.3852,0.9625 0.3378,2.1125 -0.1052,2.55556 -0.4431,0.44305 -0.7582,-0.34445 -0.7003,-1.75 z m 1.3333,-17.33333 c 0.064,-1.55326 0.3799,-1.8692 0.8056,-0.80556 0.3851,0.9625 0.3377,2.1125 -0.1053,2.55556 -0.4431,0.44305 -0.7582,-0.34445 -0.7003,-1.75 z m 5.3333,-70.66667 c 0.064,-1.55326 0.38,-1.8692 0.8056,-0.80555 0.3851,0.9625 0.3378,2.1125 -0.1053,2.55555 -0.443,0.44306 -0.7582,-0.34444 -0.7003,-1.75 z m 1.3334,-17.33333 c 0.064,-1.55326 0.3799,-1.8692 0.8055,-0.80556 0.3852,0.9625 0.3378,2.1125 -0.1052,2.55556 -0.4431,0.44305 -0.7582,-0.34445 -0.7003,-1.75 z m 1.3333,-18.66667 c 0.064,-1.55325 0.3799,-1.8692 0.8056,-0.80555 0.3851,0.9625 0.3377,2.1125 -0.1053,2.55555 -0.4431,0.44306 -0.7582,-0.34444 -0.7003,-1.75 z m 1.3333,-17.33333 c 0.064,-1.55326 0.38,-1.8692 0.8056,-0.80556 0.3851,0.9625 0.3378,2.1125 -0.1053,2.55556 -0.443,0.44306 -0.7582,-0.34444 -0.7003,-1.75 z m 2.6667,-36 c 0.064,-1.55326 0.3799,-1.8692 0.8056,-0.80555 0.3851,0.9625 0.3377,2.1125 -0.1053,2.55555 -0.4431,0.44306 -0.7582,-0.34444 -0.7003,-1.75 z m 1.3333,-17.33333 c 0.064,-1.55326 0.38,-1.8692 0.8056,-0.80556 0.3851,0.9625 0.3378,2.1125 -0.1053,2.55556 -0.443,0.44305 -0.7582,-0.34445 -0.7003,-1.75 z m 4,-53.33333 c 0.064,-1.55326 0.38,-1.8692 0.8056,-0.80556 0.3851,0.9625 0.3378,2.1125 -0.1053,2.55556 -0.443,0.44305 -0.7582,-0.34445 -0.7003,-1.75 z"
         id="path7" />
      <path
         style="fill:#ffffff"
         d="m 745.75362,2283.5259 c 2.482,-5.8193 28.3931,-60.2176 33.4791,-70.2864 3.3947,-6.7205 10.2973,-21.0303 15.339,-31.7997 5.0418,-10.7693 12.7415,-27.0805 17.1104,-36.2472 10.3387,-21.692 89.2157,-186.9615 98.3162,-206 19.5601,-40.9201 52.0331,-108.9137 71.3199,-149.3333 11.8974,-24.9334 24.94448,-52.2334 28.99378,-60.6667 4.0492,-8.4333 10.8108,-22.5333 15.0257,-31.3333 4.215,-8.8 11.2562,-23.5 15.6471,-32.6667 14.2545,-29.7576 37.5076,-78.4077 57.9934,-121.3333 11.0242,-23.1 31.4368,-65.7 45.3613,-94.6667 13.9246,-28.9666 31.7784,-66.1666 39.6752,-82.6666 14.1838,-29.6366 37.7921,-78.7095 47.7442,-99.2427 l 5.1261,-10.576 6.4323,9.9093 c 30.9145,47.6254 132.8639,207.1977 169.2675,264.9393 4.287,6.7998 7.9331,12.1998 8.1025,12 0.4846,-0.5715 40.2549,-96.0304 49.3128,-118.3633 10.4538,-25.7744 69.4592,-168.1621 101.666,-245.3333 21.6245,-51.8147 31.3264,-75.1917 56.9957,-137.3333 7.1187,-17.2333 13.7314,-32.8333 14.695,-34.6667 1.6863,-3.2084 2.0995,-2.6088 11.0284,16 5.102,10.6334 22.0317,45.4333 37.6214,77.3333 15.5898,31.9 34.1923,70 41.3389,84.6667 13.3803,27.4594 29.0311,59.5514 53.971,110.6667 7.8716,16.1333 19.8743,40.7333 26.6725,54.6666 31.3901,64.3356 44.273,90.9995 45.9001,95 0.9694,2.3834 2.2407,4.3334 2.825,4.3334 0.5844,0 8.2397,-13.35 17.0118,-29.6667 8.7721,-16.3167 21.4876,-39.8667 28.2567,-52.3333 12.4382,-22.9076 21.7761,-40.2229 64.7144,-120 13.0251,-24.2 41.9718,-77.9 64.3259,-119.3334 22.3541,-41.4333 44.9978,-83.4333 50.3192,-93.3333 55.4481,-103.15621 95.0442,-176.76721 98.6168,-183.33331 2.3941,-4.4 20.3879,-37.7 39.9862,-73.99997 19.5984,-36.3 45.4098,-84 57.3588,-106 11.949,-22 35.0682,-64.6 51.376,-94.66666 16.3079,-30.06667 33.0954,-60.96667 37.3056,-68.66667 4.2103,-7.7 9.4578,-17.3 11.6612,-21.33333 2.2034,-4.03333 24.8539,-45.73333 50.3344,-92.66666 25.4806,-46.93334 46.7762,-85.93334 47.3237,-86.66667 0.5474,-0.73333 5.51,-10.03333 11.0279,-20.66666 5.5178,-10.63334 11.6486,-22.03334 13.6238,-25.33334 l 3.5914,-6 -0.9137,8 c -0.5025,4.4 -0.9116,8.9 -0.9091,10 0.01,3.76875 -4.3715,63.1011 -18.4065,249.33333 -2.9014,38.5 -7.428,99.69999 -10.059,135.99999 -2.631,36.3 -5.7977,79.76778 -7.0372,96.59506 l -2.2536,30.59505 -21.987,-25.75398 c -12.0929,-14.16469 -22.4701,-26.58824 -23.0605,-27.60788 -0.5904,-1.01964 -2.3904,-3.2016 -4,-4.8488 -1.6096,-1.64719 -10.9708,-12.44142 -20.8026,-23.98717 -9.8319,-11.54575 -18.2989,-20.99228 -18.8157,-20.99228 -0.7725,0 -27.7481,49.41191 -32.5682,59.65626 -0.7737,1.64428 -1.8567,2.99428 -2.4067,3 -0.55,0.006 -1,1.21041 -1,2.67707 0,1.46667 -0.6354,2.66667 -1.412,2.66667 -0.7766,0 -1.0412,0.6 -0.588,1.33333 0.4532,0.73334 0.1532,1.33334 -0.6667,1.33334 -0.8199,0 -1.1498,0.55162 -0.7331,1.22584 0.4167,0.67421 -0.1907,2.17421 -1.3498,3.33333 -1.1592,1.15912 -1.6912,2.10749 -1.1824,2.10749 0.5089,0 0.3117,0.75 -0.4382,1.66667 -0.7498,0.91667 -7.1907,13.06667 -14.313,27 -7.1223,13.93334 -23.0026,44.53334 -35.2895,68.00004 -12.2869,23.4666 -33.9237,64.8666 -48.0818,91.9999 -14.1582,27.1334 -26.2416,49.53461 -26.8521,49.78061 -0.6105,0.246 -0.7709,0.996 -0.3564,1.6667 0.4146,0.6707 0.083,1.2194 -0.737,1.2194 -0.8199,0 -1.1635,0.5295 -0.7635,1.1766 0.3999,0.6472 -0.4647,2.6918 -1.9213,4.5437 -1.4567,1.8518 -2.6485,3.7985 -2.6485,4.3258 0,1.739 -36.4627,70.5989 -37.9137,71.6001 -0.7808,0.5388 -0.9295,0.9888 -0.3305,1 0.5991,0.011 -1.0874,4.0704 -3.7477,9.0204 -2.6603,4.95 -8.9109,16.8 -13.8902,26.3334 -11.2555,21.5498 -34.1383,65.0746 -37.503,71.3333 -1.3798,2.5667 -10.7491,20.5667 -20.8207,40 -10.0716,19.4333 -18.7993,35.5346 -19.3948,35.7805 -0.5955,0.246 -0.7735,0.9476 -0.3955,1.5592 0.378,0.6116 -0.2611,2.0603 -1.4202,3.2195 -1.1592,1.1591 -1.7394,2.1075 -1.2894,2.1075 0.4499,0 -0.6481,2.55 -2.44,5.6666 -1.792,3.1167 -14.6382,27.5667 -28.5472,54.3334 -13.909,26.7666 -42.5374,81.6666 -63.6188,122 -21.0813,40.3333 -41.2984,79.0333 -44.9268,86 -3.6284,6.9666 -7.749,14.7666 -9.157,17.3333 -1.408,2.5667 -15.5233,29.8666 -31.3674,60.6666 -15.8441,30.8 -29.2464,56.4623 -29.7829,57.0273 -1.427,1.5028 -71.0308,-140.1198 -158.4316,-322.3606 -8.4408,-17.6 -20.3295,-42.35 -26.4193,-55 -6.0898,-12.65 -10.6668,-23.0092 -10.1712,-23.0204 0.4957,-0.011 0.2633,-0.4612 -0.5163,-1 -0.7797,-0.5388 -4.6297,-7.8796 -8.5557,-16.3129 -7.963,-17.1053 -7.7495,-16.7218 -8.7504,-15.7208 -0.8804,0.8803 7.9379,-20.882 -125.2311,309.0541 -18.7952,46.5667 -39.549,97.8667 -46.1194,114 -6.5705,16.1333 -18.1049,44.539 -25.6321,63.1236 -7.5272,18.5847 -14.2707,33.8281 -14.9856,33.8744 -1.4586,0.094 -8.1697,-10.367 -45.9735,-71.6647 -32.4403,-52.601 -78.4683,-126.8993 -87.7629,-141.6666 -3.8079,-6.05 -6.6193,-11 -6.2476,-11 0.3717,0 -0.3742,-1.119 -1.6575,-2.4867 -1.2834,-1.3676 -12.8334,-19.6373 -25.6667,-40.5994 -12.8333,-20.962 -23.8994,-37.9543 -24.5912,-37.7607 -0.6918,0.1936 -8.6113,15.9133 -17.599,34.9327 -8.9876,19.0194 -16.8216,35.2042 -17.4088,35.9662 -0.5872,0.762 -1.2658,2.2563 -1.5079,3.3207 -0.2421,1.0644 -1.1421,2.3818 -2,2.9275 -0.8579,0.5457 -1.1683,1.0014 -0.6899,1.0126 0.9873,0.023 -43.6829,93.3352 -45.6156,95.2871 -0.6899,0.6966 -1.2543,2.3466 -1.2543,3.6666 0,1.32 -0.6,2.4 -1.3333,2.4 -0.7333,0 -1.1833,0.4607 -1,1.0236 0.4533,1.3921 -37.8453,80.8612 -39.2406,81.4237 -0.6101,0.2459 -0.7702,0.9959 -0.3557,1.6666 0.4145,0.6707 0.2183,1.2195 -0.4361,1.2195 -0.6544,0 -1.2204,0.75 -1.2578,1.6666 -0.037,0.9167 -5.002,11.8667 -11.0324,24.3334 -19.9296,41.2005 -46.1129,95.5064 -62.6789,130 -8.981,18.7 -27.7354,57.7 -41.67658,86.6666 -13.9412,28.9667 -29.3818,61.0667 -34.3126,71.3334 -13.5025,28.1147 -78.6104,163.127 -92.5893,192 -6.7459,13.9333 -15.4689,32.0833 -19.3845,40.3333 l -7.1193,15 h -50.6007 c -39.9709,0 -50.4515,-0.3501 -49.89,-1.6667 z m 710.90778,-223.8543 c -68.6217,-4.8967 -136.7657,-19.8344 -203.6661,-44.6455 -57.1244,-21.1854 -128.4518,-59.9217 -179.2981,-97.3726 l -9.6308,-7.0937 5.8438,-12.3502 c 30.1102,-63.6348 46.1962,-96.3001 47.2951,-96.041 0.7217,0.1701 7.0627,4.8045 14.0911,10.2986 78.2346,61.1558 178.9679,105.9588 274.4034,122.0461 72.8018,12.272 143.0038,12.0368 212.6411,-0.7123 122.1244,-22.3585 239.7111,-85.0842 330.9892,-176.5637 34.0258,-34.1009 55.9899,-60.4626 79.5122,-95.4319 38.0219,-56.5252 60.6764,-102.3466 81.7779,-165.4051 4.1949,-12.5357 8.0557,-23.4857 8.5795,-24.3333 0.5239,-0.8476 0.6553,-1.541 0.292,-1.541 -0.3632,0 0.5376,-4.3232 2.0019,-9.6072 1.4642,-5.2839 4.7013,-18.9339 7.1934,-30.3333 14.9969,-68.5988 19.0024,-140.3998 11.4208,-204.7262 -1.0876,-9.2281 0.4062,-15.7037 4.1869,-18.1491 0.6936,-0.4486 1.2132,-1.3486 1.1547,-2 -0.1005,-1.1176 29.5226,-57.9385 34.6784,-66.5176 1.3222,-2.2 3.707,-6.85 5.2996,-10.3333 1.5927,-3.4833 3.4573,-6.3333 4.1436,-6.3333 0.6863,0 0.9069,-0.5517 0.4902,-1.2259 -0.4167,-0.6742 0.1693,-2.1528 1.3023,-3.2857 1.1329,-1.1329 1.9185,-2.2313 1.7457,-2.4408 -0.7972,-0.9667 30.3711,-58.2845 31.5008,-57.9294 3.3053,1.0391 21.5261,73.7372 25.4516,101.5484 0.4141,2.9334 1.0278,7.4334 1.3638,10 0.3361,2.5667 1.4843,10.0667 2.5516,16.6667 4.7733,29.5162 6.5826,58.245 6.6337,105.3333 0.055,50.4578 -1.0664,67.3368 -7.3068,110 -6.0671,41.4779 -11.9608,68.5858 -23.3757,107.515 -46.4594,158.4447 -145.7621,302.6188 -275.3114,399.715 -44.8454,33.6112 -77.0104,53.9406 -117.0817,73.9997 -47.999,24.0276 -78.3566,36.1294 -125.4076,49.9924 -55.4658,16.3423 -95.251,23.4938 -152.7994,27.466 -22.091,1.5249 -80.021,1.4068 -102.6667,-0.2091 z M 867.07572,1688.8457 c -15.9635,-26.0617 -23.3799,-39.7549 -34.6252,-63.9298 -41.5951,-89.4201 -63.3398,-167.2001 -73.1691,-261.7233 -2.9072,-27.9567 -4.0358,-92.1462 -2.0988,-119.3665 4.2444,-59.644 14.6431,-118.6945 30.17,-171.3236 37.4354,-126.88881 101.4879,-236.35331 192.5872,-329.12827 120.02698,-122.23463 268.77608,-198.82598 431.38828,-222.12302 89.1973,-12.77908 181.4796,-10.01348 266.4312,7.98463 22.9057,4.85287 54.4665,13.08745 56.0646,14.62792 0.6394,0.6163 1.9894,0.80324 3,0.41542 1.0106,-0.38782 1.8375,0.0233 1.8375,0.91351 0,0.89025 0.8414,1.29578 1.8697,0.90119 1.0283,-0.3946 2.2457,-0.34143 2.7052,0.11816 0.4596,0.45959 1.7651,0.97203 2.9012,1.13877 1.136,0.16673 3.0687,0.73951 4.2947,1.27283 1.2261,0.53332 3.3821,1.19147 4.7913,1.46256 1.4091,0.27109 3.2643,1.07575 4.1226,1.78812 0.8584,0.71238 1.9555,0.90044 2.438,0.41791 0.4825,-0.48252 0.8773,-0.11312 0.8773,0.82089 0,0.94526 0.8679,1.36519 1.9573,0.94712 1.0765,-0.4131 2.318,-0.1675 2.7588,0.54576 0.4409,0.71327 1.3186,0.97728 1.9506,0.58669 0.632,-0.39059 1.532,-0.0906 2,0.66667 0.468,0.75725 1.4095,1.03163 2.0921,0.60972 0.6827,-0.4219 1.2412,-0.25937 1.2412,0.36118 0,0.62056 1.1303,1.21343 2.5118,1.31749 5.85,0.44067 80.2778,32.92131 84.6585,36.94536 0.8579,0.7881 2.4399,1.63102 3.5155,1.87315 1.0756,0.24213 2.4022,1.14213 2.9479,2 0.5457,0.85787 1.0014,1.15015 1.0126,0.64952 0.027,-1.21475 21.748,10.8155 23,12.73873 0.5388,0.82766 0.9888,1.05088 1,0.49603 0.071,-3.50692 87.5818,55.30098 91.0867,61.2109 0.5864,0.98885 1.7159,1.79791 2.51,1.79791 3.1036,0 41.7643,34.03115 68.2282,60.05788 l 27.8512,27.39121 -16.6028,29.94212 c -9.1316,16.46813 -22.4851,41.19213 -29.6745,54.94213 -7.1895,13.75 -13.8397,25 -14.7783,25 -0.9386,0 -4.1913,-3.15 -7.2281,-7 -10.1651,-12.8869 -41.9049,-46.878 -54.4697,-58.3333 -18.1535,-16.55062 -35.1086,-30.82705 -50.2356,-42.29937 -7.3334,-5.56158 -14.1092,-11.06942 -15.0574,-12.23965 -0.9483,-1.17023 -2.1483,-2.05294 -2.6667,-1.96159 -0.5184,0.0914 -6.5882,-3.77007 -13.4884,-8.58094 -18.9774,-13.23116 -51.9712,-32.74259 -72.1209,-42.64987 -9.9,-4.86768 -18.3,-9.16944 -18.6666,-9.55947 -0.3667,-0.39003 -1.4113,-0.85734 -2.3213,-1.03845 -0.91,-0.18112 -5.41,-2.0577 -10,-4.17017 -14.5965,-6.71784 -45.0951,-18.3893 -63.0121,-24.11399 -17.7911,-5.68449 -61.6698,-17.07801 -70,-18.17617 -2.5666,-0.33837 -5.7337,-0.94497 -7.0379,-1.34802 -1.3042,-0.40304 -4.0042,-0.94348 -6,-1.20097 -1.9958,-0.2575 -12.6287,-1.71219 -23.6287,-3.23266 -31.1613,-4.30725 -48.0763,-5.40501 -83.4731,-5.41731 -48.5815,-0.0169 -85.2409,3.52802 -126.5269,12.23501 -10.6334,2.2425 -20.5334,4.2853 -22,4.53956 -1.4667,0.25425 -12.5667,3.23539 -24.6667,6.62476 -128.4863,35.99064 -245.269,114.20051 -331.3858,221.9305 -15.9255,19.9224 -36.55048,49.5771 -48.67978,69.9921 -3.9214,6.6 -7.662,12.3671 -8.3126,12.8157 -0.6506,0.4487 -1.1063,1.2123 -1.0127,1.6969 0.094,0.4847 -3.1691,7.1068 -7.2506,14.7159 -64.391,120.04431 -90.7336,260.44301 -73.9446,394.10481 7.4142,59.0264 23.0171,118.5735 44.1951,168.6666 3.7204,8.8 6.7803,16.75 6.7999,17.6667 0.02,0.9167 0.5709,1.6667 1.2253,1.6667 0.6544,0 0.8507,0.5487 0.4362,1.2194 -0.4145,0.6707 -0.2999,1.4207 0.2546,1.6667 1.1401,0.5056 7.0083,12.5448 7.0083,14.3782 0,1.4236 -58.5483,128.2972 -59.8628,129.7221 -0.5005,0.5425 -5.7758,-6.9575 -11.7229,-16.6667 z"
         id="path2" />
    </g>
  </g>
</svg>
